<?xml version="1.0" encoding="UTF-8" standalone="no"?>
<!-- Generator: Adobe Illustrator 19.2.1, SVG Export Plug-In . SVG Version: 6.00 Build 0)  -->

<svg
   xmlns:dc="http://purl.org/dc/elements/1.1/"
   xmlns:cc="http://creativecommons.org/ns#"
   xmlns:rdf="http://www.w3.org/1999/02/22-rdf-syntax-ns#"
   xmlns:svg="http://www.w3.org/2000/svg"
   xmlns="http://www.w3.org/2000/svg"
   xmlns:sodipodi="http://sodipodi.sourceforge.net/DTD/sodipodi-0.dtd"
   xmlns:inkscape="http://www.inkscape.org/namespaces/inkscape"
   version="1.1"
   id="Layer_1"
   x="0px"
   y="0px"
   viewBox="0 0 50 40.3"
   style="enable-background:new 0 0 50 40.3;"
   xml:space="preserve"
   inkscape:version="0.91 r13725"
   sodipodi:docname="download.svg"><metadata
     id="metadata15"><rdf:RDF><cc:Work
         rdf:about=""><dc:format>image/svg+xml</dc:format><dc:type
           rdf:resource="http://purl.org/dc/dcmitype/StillImage" /></cc:Work></rdf:RDF></metadata><defs
     id="defs13" /><sodipodi:namedview
     pagecolor="#ffffff"
     bordercolor="#666666"
     borderopacity="1"
     objecttolerance="10"
     gridtolerance="10"
     guidetolerance="10"
     inkscape:pageopacity="0"
     inkscape:pageshadow="2"
     inkscape:window-width="1398"
     inkscape:window-height="716"
     id="namedview11"
     showgrid="false"
     inkscape:zoom="5.8560795"
     inkscape:cx="25"
     inkscape:cy="20.15"
     inkscape:window-x="77"
     inkscape:window-y="24"
     inkscape:window-maximized="0"
     inkscape:current-layer="Layer_1" /><style
     type="text/css"
     id="style3">
	.st0{fill:#F2F2F2;}
</style><g
     id="g5"><path
       class="st0"
       d="M48.5,5.3c0-1.5-0.9-2-2.1-2S24,3.3,23,3.3s-1.2-1-1.2-1.8c0-0.7-0.5-1.5-1.4-1.5C19.5,0,7.2,0,6,0   C4.8,0,4.8,1.2,4.8,1.6S4.3,3.2,3.4,3.2C2.2,3.2,1.7,4,1.7,4.6c0,0.3,0,1.3,0,1.3l46.8,0.3V5.3z"
       id="path7" /><path
       class="st0"
       d="M48.4,7.4H1.6C0.7,7.4,0,8.1,0,9l1.3,29.7c0,0.9,0.7,1.6,1.6,1.6h44.2c0.9,0,1.6-0.7,1.6-1.6L50,9   C50,8.1,49.3,7.4,48.4,7.4z M33.3,33.2v2.1H16.8v-2.1h8.2l-8.2-10.7h5.3v-7.5H28v7.5h5.3l-8.2,10.7H33.3z"
       id="path9" /></g><path
     style="fill:#333333;fill-opacity:1;stroke:#4600e0;stroke-width:0;stroke-miterlimit:4;stroke-dasharray:none;stroke-opacity:1"
     d="M 1.796903,39.858019 C 1.5725976,39.633714 1.3484601,39.191865 1.2988195,38.876134 1.249179,38.560402 0.92460097,31.63544 0.57753512,23.487328 0.08728493,11.977658 -0.00930746,8.5756016 0.14456747,8.2378829 0.58675146,7.2673948 -0.51785204,7.3086439 25.028475,7.3086439 c 25.82574,0 24.385913,-0.05859 24.828681,1.0103457 0.152235,0.3675276 0.05918,3.6754774 -0.413994,14.7163024 -0.723283,16.876857 -0.681669,16.298482 -1.210749,16.827563 l -0.402991,0.402992 -22.812346,0 -22.8123452,0 -0.4078278,-0.407828 z m 31.502165,-5.565831 0,-1.02154 -4.112033,-0.04573 -4.112033,-0.04573 4.026652,-5.248854 c 2.214659,-2.88687 4.026651,-5.28822 4.026651,-5.336335 0,-0.04811 -1.152648,-0.08748 -2.561441,-0.08748 l -2.56144,0 0,-3.75678 0,-3.756779 -2.902966,0 -2.902966,0 0,3.752443 0,3.752444 -2.643802,0.04703 -2.643799,0.04703 4.004312,5.208263 c 2.202371,2.864544 4.006827,5.265895 4.009903,5.336335 0.0031,0.07044 -1.800227,0.128072 -4.007335,0.128072 l -4.012923,0 0,1.024576 0,1.024576 8.19661,0 8.19661,0 0,-1.02154 z"
     id="path4143"
     inkscape:connector-curvature="0" /><path
     style="fill:#333333;fill-opacity:1;stroke:#4600e0;stroke-width:0;stroke-miterlimit:4;stroke-dasharray:none;stroke-opacity:1"
     d="M 28.346949,6.1038929 C 20.316833,6.0419589 11.038014,5.9803184 7.727352,5.966914 l -6.0193855,-0.024372 0,-0.9473487 c 0,-0.8050997 0.067846,-1.0102264 0.451842,-1.3661017 0.2485132,-0.2303141 0.6291135,-0.418753 0.8457787,-0.418753 0.964037,0 1.7761081,-0.8796257 1.7761081,-1.9238588 0,-0.2314188 0.1592637,-0.62323245 0.3539194,-0.87069703 l 0.3539193,-0.44993561 7.685064,0 7.685064,0 0.499151,0.49915253 c 0.368989,0.36898889 0.499153,0.66135921 0.499153,1.12118371 0,0.636949 0.246155,1.2701916 0.580542,1.4934683 0.103341,0.069002 5.627016,0.1266339 12.274837,0.128072 12.994762,0.00281 12.888433,-0.00409 13.505143,0.876386 0.172043,0.2456265 0.278461,0.7419655 0.278461,1.2987585 l 0,0.9011992 -2.774894,-0.033784 C 44.195863,6.2317028 36.377065,6.1658268 28.346949,6.1038929 Z"
     id="path4145"
     inkscape:connector-curvature="0" /></svg>